<svg width="1024" height="1024" viewBox="0 0 1024 1024" fill="none" xmlns="http://www.w3.org/2000/svg">
<g clip-path="url(#clip0_59_2)">
<circle cx="512" cy="512" r="512" fill="#F6F2F1"/>
<path d="M356.629 730.72L348.949 728.8L317.269 682.72L508.309 452.32C539.669 415.2 565.909 385.44 587.029 363.04C608.149 340.64 627.349 323.04 644.629 310.24C661.909 297.44 680.149 286.88 699.349 278.56C707.029 286.88 713.429 295.2 718.549 303.52C723.669 311.2 728.469 319.52 732.949 328.48L730.069 340C701.269 356.64 676.629 372.32 656.149 387.04C636.309 401.76 617.749 417.76 600.469 435.04C583.829 451.68 565.909 471.84 546.709 495.52L356.629 730.72ZM356.629 730.72L347.029 708.64C363.029 661.92 375.829 621.92 385.429 588.64C395.669 555.36 403.029 527.52 407.509 505.12C412.629 482.72 415.189 464.48 415.189 450.4C415.189 416.48 405.589 393.44 386.389 381.28C367.189 369.12 337.429 367.52 297.109 376.48L293.269 368.8C300.949 347.68 311.189 330.4 323.989 316.96C336.789 303.52 352.149 292.96 370.069 285.28C407.829 289.12 432.789 311.52 444.949 352.48C457.749 393.44 455.829 450.4 439.189 523.36L452.629 528.16L394.069 721.12L356.629 730.72ZM639.829 734.56C608.469 732 584.149 724.32 566.869 711.52C550.229 698.08 539.349 676.64 534.229 647.2C529.749 617.76 529.429 576.8 533.269 524.32L521.749 517.6L576.469 444.64C570.069 491.36 568.149 530.08 570.709 560.8C573.269 590.88 580.949 612.96 593.749 627.04C606.549 640.48 624.469 645.92 647.509 643.36C670.549 640.8 699.349 630.56 733.909 612.64L738.709 623.2C733.589 639.2 726.229 654.56 716.629 669.28C707.029 683.36 695.829 696.16 683.029 707.68C670.229 718.56 655.829 727.52 639.829 734.56Z" fill="#E94E6D"/>
</g>
<defs>
<clipPath id="clip0_59_2">
<rect width="1024" height="1024" fill="white"/>
</clipPath>
</defs>
</svg>
